<?xml version="1.0" encoding="utf-8"?>
<!-- Generator: Adobe Illustrator 28.1.0, SVG Export Plug-In . SVG Version: 6.00 Build 0)  -->
<svg version="1.1" id="Layer_1" xmlns="http://www.w3.org/2000/svg" xmlns:xlink="http://www.w3.org/1999/xlink" x="0px" y="0px"
	 viewBox="0 0 2159.2 1948.8" style="enable-background:new 0 0 2159.2 1948.8;" xml:space="preserve">
<style type="text/css">
	.st0{fill:#C83627;stroke:#3679BE;stroke-width:10;stroke-miterlimit:10;}
	.st1{clip-path:url(#SVGID_00000094610200684224141770000001576869249367822214_);}
	.st2{clip-path:url(#SVGID_00000070828930459455417340000001607799665193136001_);}
	.st3{fill:#4864AF;}
	.st4{clip-path:url(#SVGID_00000158743160380508174080000009361972501162141104_);}
	.st5{fill:#DDDEE0;}
	.st6{clip-path:url(#SVGID_00000072251439998527958800000012651701060126858133_);}
	.st7{clip-path:url(#SVGID_00000072973250887455485230000005228607234672524479_);}
	.st8{clip-path:url(#SVGID_00000119804770714640953850000011640874141799027600_);}
	.st9{clip-path:url(#SVGID_00000126304321815961793470000016374013701311914169_);}
	.st10{clip-path:url(#SVGID_00000052813251200931073360000014504774209536045495_);}
	.st11{clip-path:url(#SVGID_00000121267297686055051180000006231201578584669101_);}
	.st12{clip-path:url(#SVGID_00000053534917205301227780000016982915976608479889_);}
	.st13{fill:#010101;}
	.st14{clip-path:url(#SVGID_00000161591156235716129280000002606218031411262379_);}
	.st15{fill:#53A8DA;}
	.st16{clip-path:url(#SVGID_00000098911681265539743580000000496537995815263416_);}
	.st17{clip-path:url(#SVGID_00000054223447068208780540000007783666763427085699_);}
	.st18{clip-path:url(#SVGID_00000021807940242921046930000004979045654147516856_);}
</style>
<path class="st0" d="M244.7,1889.3H122.8l-18.5,56.1H3.9l125.3-343.7h110.2l124.8,343.7h-101L244.7,1889.3z M220.8,1816.2l-37-111.2
	l-36.6,111.2H220.8z M571.3,1945.4l-75.6-112.1v112.1h-95.6v-360.8h95.6v194.5l75.6-107.2h114.6l-107.7,137.5l109.7,136
	L571.3,1945.4z M974.8,1700.9c18.4,21,27.5,49.3,27.5,85.1v159.4h-95.6v-146.7c0-15.6-4.1-27.9-12.2-36.8
	c-8.1-8.9-19-13.4-32.7-13.4c-14.3,0-25.5,4.5-33.6,13.4s-12.2,21.2-12.2,36.8v146.7h-95.6v-360.8h95.6v126.3
	c8.4-12.4,19.9-22.4,34.4-30c14.5-7.6,31.1-11.5,50-11.5C931.6,1669.4,956.4,1679.9,974.8,1700.9L974.8,1700.9z M1059.6,1734.3
	c10.2-21.1,24.3-37.4,42.2-48.8c17.7-11.3,38.4-17.3,59.5-17.1c17.6,0,33.2,3.7,47,11c13.3,6.9,24.5,17.2,32.4,30v-124.9h96v360.8
	h-96v-38c-7.6,12.8-18.6,23.2-31.7,30.2c-13.6,7.5-29.7,11.2-48.3,11.2c-21.8,0-41.5-5.7-59.2-17.1s-31.7-27.7-41.9-49
	c-10.2-21.3-15.4-46.1-15.4-74.3S1049.3,1755.4,1059.6,1734.3L1059.6,1734.3z M1226.8,1766.9c-9.1-9.9-21.9-15.4-35.3-15.1
	c-14.3,0-26.2,5-35.6,14.9c-9.4,9.9-14.1,23.8-14.1,41.7c0,17.6,4.7,31.4,14.1,41.7c9.4,10.2,21.3,15.4,35.6,15.4
	c13.4,0.2,26.3-5.3,35.3-15.1c9.6-10.1,14.4-24,14.4-41.9C1241.2,1790.8,1236.4,1777,1226.8,1766.9z M1656,1827.9h-180.9
	c1,15,5.1,26.1,12.4,33.4s16.7,11,28,11c15.9,0,27.3-7.1,34.1-21.4h101.9c-4.1,18.5-12.5,35.8-24.6,50.5
	c-12.2,14.8-27.6,26.4-46.1,34.9c-18.5,8.5-39,12.7-61.4,12.7c-27,0-50.9-5.7-71.9-17.1c-20.8-11.2-37.8-28.1-49.2-48.8
	c-11.9-21.1-17.8-46-17.8-74.6c0-28.6,5.8-53.4,17.6-74.3c11.3-20.6,28.3-37.4,49-48.5c21-11.4,45.1-17.1,72.4-17.1
	c27,0,50.9,5.5,71.7,16.6c20.5,10.8,37.5,27.3,48.8,47.5c11.7,20.6,17.6,44.9,17.6,72.9C1657.5,1812.9,1657,1820.4,1656,1827.9
	L1656,1827.9z M1560,1781.6c0-11.7-3.9-20.9-11.7-27.5c-7.8-6.7-17.5-10-29.2-10c-11.7,0-21.3,3.2-28.8,9.5
	c-7.5,6.3-12.4,15.7-14.6,28L1560,1781.6z M1849.1,1751.3h-42.9v194h-96v-194h-29.8v-79.5h29.7v-2.4c0-35.1,10.3-62,31-80.7
	c20.7-18.7,50.3-28,89-28c7.8,0,13.8,0.2,18,0.5v81.4c-3.6-0.4-7.1-0.5-10.7-0.5c-10.4,0-18,2.4-22.9,7.1
	c-4.9,4.7-7.6,12.3-8.3,22.7h42.9L1849.1,1751.3z M1942,1931.7c-21.3-11.1-39-28-50.9-48.8c-12.4-21.1-18.5-46-18.5-74.6
	c0-28.3,6.3-53,18.8-74.1c12.1-20.8,29.9-37.7,51.2-48.8c21.6-11.4,46.1-17.1,73.4-17.1c27.3,0,51.8,5.7,73.4,17.1
	c21.3,11.1,39.1,28,51.2,48.8c12.5,21.1,18.8,45.8,18.8,74.1c0,28.3-6.3,53.1-18.8,74.3c-12.1,20.9-30,37.9-51.4,49
	c-21.8,11.4-46.3,17.1-73.6,17.1C1988,1948.8,1963.6,1943.1,1942,1931.7L1942,1931.7z M2048.8,1851c8.9-9.9,13.4-24.1,13.4-42.6
	s-4.5-32.7-13.5-42.4c-8.9-9.7-19.9-14.6-32.9-14.6s-23.9,4.9-32.7,14.6c-8.8,9.8-13.2,23.9-13.2,42.4c0,18.9,4.2,33.2,12.7,42.9
	s19.3,14.6,32.7,14.6C2028.1,1866.1,2040.4,1860.7,2048.8,1851L2048.8,1851z"/>
<g>
	<defs>
		<rect id="SVGID_1_" x="0" width="1535" height="1479.4"/>
	</defs>
	<clipPath id="SVGID_00000035506936828705485090000015436596840253180327_">
		<use xlink:href="#SVGID_1_"  style="overflow:visible;"/>
	</clipPath>
	<g style="clip-path:url(#SVGID_00000035506936828705485090000015436596840253180327_);">
		<g>
			<defs>
				<rect id="SVGID_00000154423290466072350490000003417445057067983748_" x="0" width="1535" height="1479.4"/>
			</defs>
			<clipPath id="SVGID_00000168806917137772463660000010092551519766945192_">
				<use xlink:href="#SVGID_00000154423290466072350490000003417445057067983748_"  style="overflow:visible;"/>
			</clipPath>
			<g style="clip-path:url(#SVGID_00000168806917137772463660000010092551519766945192_);">
				<path class="st3" d="M1528.2,648c-6.8-38-14.2-75.8-21.3-113.7c-3.4-18-5.8-36.2-11.7-53.6c-10-29.7-22.6-58.6-37.4-86.2
					c-34.5-64.6-81.3-119.1-136.3-167c-25.4-22.1-51.5-43.5-81.3-59.7c-51.4-28-102.1-57.2-155.3-81.6
					C1023.4,58.1,962,29.9,894.4,18.9c-10.6-1.7-21.1-4.1-31.8-5.9C813.3,4.5,763.4,0.2,713.4,0c-20.3,0-40.5,1.3-60.8,1.7
					c-25.2,0.6-50.3,3-75.1,7.3c-41.1,6.8-80.5,19.5-119.6,33.7c-42.6,16-82.6,38.1-118.8,65.7C305.7,133.2,224.9,208,218.8,215
					c-5.2,6-53.8,58.7-64.8,70.8c-2.2,2.4-4.4,4.7-6.7,6.9c-6.6,13.7-33.5,44.8-36,49.1C53,444.1,16.3,557.3,3.2,674.3
					C-3,726.8,0.5,779.6,7.7,831.8c9.9,69,28.2,136.5,54.5,201c31.2,77.2,75.1,148.6,129.8,211.3c20,23.4,42.2,44.7,66.4,63.8
					c59.9,47.1,125.6,84.8,193.9,118.1c4.2,1.8,8.5,3.3,12.9,4.5c58,17.1,117.1,30.1,176.9,38.8c40,6.6,80.5,10,121,10.2
					c52.3-0.6,104.6-5.5,156.1-14.5c33.1-6.1,65.8-14.4,97.7-24.9c79.3-24.5,153.5-58,217.2-113.4c45.9-39.9,89.3-81.5,125-130.8
					c75.6-103.9,130.1-221.7,160.3-346.6C1535.6,782.8,1540.3,715.9,1528.2,648z"/>
			</g>
		</g>
		<g>
			<defs>
				<rect id="SVGID_00000021805635134500723100000016509484590435592609_" x="0" width="1535" height="1479.4"/>
			</defs>
			<clipPath id="SVGID_00000017497713732100749550000002444700344011935678_">
				<use xlink:href="#SVGID_00000021805635134500723100000016509484590435592609_"  style="overflow:visible;"/>
			</clipPath>
			<g style="clip-path:url(#SVGID_00000017497713732100749550000002444700344011935678_);">
				<path class="st5" d="M923.4,984.4c0-11.2,0.1-23.3,0-35.4c0-19.5-6.3-38.4-18-53.9c-3.5-4.7-6.6-9.7-9.7-14.7
					c-6.5-10.4-8.4-23-5.3-34.9c2.3-9.6,2.2-9.7-7-14.5c-4.7-2.2-9.1-5.2-12.8-8.9c-7.3-7.8-15.6-8-25.1-4.8
					c-15.2,5.1-30.7,9-46.6,11.6c-25.9,4.8-52.7,0.9-76.3-11c-24.1-11.4-44.3-29.6-58.1-52.4c-15.7-26.5-19-54.5-15.1-84.1
					c4.3-31.3,16.8-60.9,36.2-85.8c13.1-17.1,24.5-35.4,34.1-54.8c13.8-28.2,38.5-39.5,69-40c4.2-0.1,8.5,0.3,12.7,0.6
					c13.7,0.7,27.5-1.7,40.2-6.9c19.3-8.1,39.5-13.8,60.3-16.8c16.2-1.8,29.6,2.5,40,15.6c5.3,6.7,11,12.9,16.8,19.2
					c7.3,8.2,17.9,12.6,28.8,12.2c9.2,0,18.3-1.2,27.2-3.6c18.1-5.5,37.7-2.8,53.6,7.5c18.9,11.8,42,14.8,63.2,8.2
					c8.2-2.3,6.7-1,11.2,6.5c7.5,12.3,5.7,25.8,8.1,38.8c2,11,5.6,21.6,10.7,31.5c8.5,16.6,16.4,33.5,23.9,50.5
					c10.6,23.7,25.3,45,39.2,66.7c4.1,6.4,10.5,11,17.8,12.9c9.5,2.6,19.1,4.5,28.8,5.7c4.5,0.7,9.1,1.2,13.5,2.2
					c22.5,4.7,32.5,22.6,24.5,44.2c-5.9,15.7-15.5,29.7-27.9,41c-5,4.7-10.2,9.1-15.6,13.4c-18.5,15.2-33.8,33.9-45,55.1
					c-8.9,15.5-11.9,33.6-8.6,51.1c2,10.9,3.7,21.9,5.4,32.9c4.5,29.4-6,53.6-27,73.2c-11.5,10.2-20.3,23.2-25.5,37.6
					c-4,11.4-9.5,22.3-16.3,32.3c-3.8,6.1-6.9,12.6-9.1,19.5c-14.7,41-43.1,68.7-82.4,85.8c-19.9,9.3-41.4,14.8-63.3,16
					c-12.5,0.4-17.5-3.1-20.6-14.9c-8.8-31.5-15.4-63.5-19.9-95.9c-1.1-9.1-1.7-18.2-2.3-27.4c-0.7-15.5-5.5-30.5-13.9-43.4
					c-14.4-21.2-17.7-44.6-15.1-69.3C922.8,997.1,923,991.3,923.4,984.4z"/>
			</g>
		</g>
		<g>
			<defs>
				<rect id="SVGID_00000094592779781521222590000005928449707417906052_" x="0" width="1535" height="1479.4"/>
			</defs>
			<clipPath id="SVGID_00000105424690214471465670000014433864540063760023_">
				<use xlink:href="#SVGID_00000094592779781521222590000005928449707417906052_"  style="overflow:visible;"/>
			</clipPath>
			<g style="clip-path:url(#SVGID_00000105424690214471465670000014433864540063760023_);">
				<path class="st5" d="M1078.3,441.6c-7,3.3-14,6.8-21.1,10c-4.3,1.9-7.4,5.7-8.2,10.3c-1.1,5.1-2,10.2-2.9,15.4
					c-1.4,8.2-5.1,12.5-11.1,12.9c-5.6,0.3-8.4-3.7-12.1-10.7c-8.6-16.5-12-36.4-29.5-47.3c-1.1-0.7-2.1-1.4-5.2-3.5
					c2.9,6.4,6.2,10.5,5.1,15.9s-5.8,8.5-8.6,13.2c3,2,5.8,3.7,8.3,5.7c2.8,1.9,4.2,5.3,3.5,8.6c-0.9,3.6-4,6.3-7.7,6.6
					c-9.6,1.6-19.3-2.2-25.2-9.9c-6-6.7-9.1-15.5-8.6-24.4c0.6-10.2-4.6-16-12.5-20.2c-11.1-5.6-23.2-9-35.6-10.1
					c-4.2-0.4-8.5,0.2-12.5,1.7c-17.9,6.2-34.7,15.3-49.8,27c-9.8,7.8-17.8,17.5-23.7,28.5c-9.9,18.1-24.4,24.3-44.3,19.6
					c-6.4-1.1-12.7-3.3-18.4-6.4c-10.5-5.2-15-17.8-10.3-28.6c1.3-4,3.1-7.9,5.4-11.5c4.5-6.9,4.8-13.3-1-19.6
					c-1.3-1.5-2.4-3.1-3.3-4.8c-6.2-11-0.7-22.4,12-23.7c7.5-0.7,15.1-0.3,22.4,1.4c6.1,1.4,12.4,1.6,18.5,0.4
					c7.2-1.5,8.2-3.3,6.1-10.2c-1.1-4.8-3.5-9.2-7.1-12.7c-2.2-2-3.6-4.7-4.2-7.6c-1.2-3.5,0.4-7.4,3.8-9.1c3.3-2.1,7.1-3.4,11-3.6
					c11.7,0.1,22.6-5.6,29.2-15.2c3.9-4.9,8.8-8.9,14.3-11.8c13.7-8.3,26.9-17.4,39.6-27.2c3.4-1.9,5.6-5.5,5.8-9.5
					c0.1-2.6,0.7-5.2,1.8-7.6c2.1-6,8.8-9.2,14.8-7c2.4,0.8,4.4,2.4,5.8,4.5c2.2,2.9,3.6,6.3,3.9,9.9c-0.2,3.7,2.7,6.8,6.4,7
					c0.4,0,0.9,0,1.3-0.1c22.5-1,45.1-1.4,67-7.8c3.8-1,7-3.6,8.8-7.2c4.3-8.1,10.7-13.1,20.4-12.5c2.9,0.6,5.8-1.2,6.4-4.2
					c0-0.1,0-0.2,0.1-0.3c2.4-10.1,9.5-18.4,19-22.5c-5.7,0.9-11.4,1.9-17.1,2.8c-6.2,1-12.5,0.4-18.4-1.7
					c-10.7-2.6-17.7-13-15.8-23.9c0.2-2.2,0.5-4.5,0.9-8.1c-7.2,6.2-14.9,11.8-23.1,16.6c-3.2,1.8-3.7,5.2-4.2,8.5
					c-1.3,9.1-3.4,18-6.2,26.7c-1.3,4.7-3.4,9.2-6.1,13.3c-5.2,7.1-14.3,7.7-18.9,0.4c-4.9-7.7-12.1-12.7-18.2-19
					c-4-4.7-10.7-5.8-16-2.7c-4.1,2-8.1,4.2-12.1,6.4c-2.6,1.4-4.9,3.3-7.6,4.5c-7.8,3.5-15.3-0.3-15.9-8.6c-1-8.5-0.5-17,1.4-25.3
					c3.2-12,13-21.2,25.2-23.5c5.4-1.1,11-1.8,16.5-2c9.2-0.6,10.5-1.9,12.2-10.8c0.4-2.2,0.8-4.5,1.2-6.7c2.1-10.8,9-20,18.8-25.1
					c35.4-19.7,72.3-23.9,110.4-9.3c12.1,4.6,23.8,8,37.1,5.6c9.1-1.2,18.3-0.9,27.3,1c4.9,0.7,9.5,2.5,13.6,5.3
					c4.3,2.6,6.6,7.6,5.8,12.6c-0.9,5-5.2,8.8-10.3,9.1c-8,1.3-16.2,2.2-24.2,3.2c-0.2,0.6-0.1,1.3,0.3,1.9c0.4,0.5,1,0.8,1.7,0.8
					c12.4,1.2,24.8,2.2,36.7-3c5.1-2.2,10.4-4.1,15.3-6.6c19.2-9,39.2-16.4,59.7-22.1c5.2-1.9,11.1-1.2,15.6,2
					c12.9,8.3,26.2,16,39.3,24.1c16.9,10.5,32.8,22.7,47.3,36.3c9.6,8.9,19.5,17.5,29.2,26.2c2.5,2.1,4.9,4.4,7,6.8
					c24.4,31.5,51.9,60.5,73,94.6c15.5,25.7,29.1,52.6,40.6,80.4c0.5,1.2,0.9,2.5,1.5,3.6c17.1,35.8,24,74.3,30.2,113.1
					c3.9,24.2,9.6,48,14.4,72c1.7,8.6,3.4,17.3,4.7,26c0.7,4.5,0.9,9.1,0.5,13.7c-0.1,7.8-6.6,14.1-14.4,13.9
					c-2.4,0-4.8-0.7-6.9-1.9c-5.9-2.9-11.3-6.7-16-11.2c-16.3-14.2-34.1-26.4-53.3-36.5c-8.8-5.1-18.3-8.7-28.2-10.9
					c-11.9-2-23.3-6.6-33.3-13.4c-3.7-2.8-8.3-4.2-12.9-3.9c-24.1,2-45.8-5.1-66.6-16.5c-1.2-0.4-2.5-0.7-3.8-0.8
					c2.6,10,6.9,19.4,12.6,28c3.3,4.8,9.2,6.9,14.8,5.2c6-1.3,12-3.2,17.9-5c10.5-3.3,21.9-1.3,30.7,5.4c11,7.7,12.8,17.7,5.3,28.8
					c-1.2,2-2.7,3.7-4.3,5.3c-3.7,2.9-5.6,7.5-5,12.1c1.5,16.7-6.8,26.9-21.2,34c-26.1,12.9-51.8,26.4-77.8,39.5
					c-16,8.1-28,3.8-32.3-13.5c-5.8-23.3-18.7-42.2-32.7-60.8c-4.9-6.5-9.9-13-14.6-19.7c-6.1-8.2-10.4-17.5-12.7-27.4
					c-3.8-20.2-11.8-38.7-20-57.2c-6.8-15.4-13.1-30.8-8.8-48.2c0.9-3.7-1.7-4.5-4.5-4.8c-7.2-0.6-14.4-0.5-21.6,0.1
					c-8.8,0.8-17.7,0.5-26.4-0.9c-6.5-1.1-12.7-3.3-18.4-6.6c-9.5-5.3-14.4-16.2-12.1-26.8c1.3-8.8,5.4-17,11.7-23.2
					c1.3-1.3,3.3-2.2,3.1-4.6c8-2.2,14-7.9,21.2-11.6c21.5-11,43.8-16.5,68-12.4c3.8,1,7.7,1,11.5,0.1c-4.6-5.5-8.7-10.4-12.7-15.3
					c-4.4-5.3-4.7-12.5-7.6-18.4c-4.2,3.8-8.1,7.2-11.8,10.9c-13.1,12.9-29.5,17.1-41-3.2c-2.4-4.2-4.9-3.4-7.7-0.5
					c-4.9,4.4-7.9,10.6-8.4,17.2C1089.3,420.1,1085.4,431.8,1078.3,441.6z"/>
			</g>
		</g>
		<g>
			<defs>
				<rect id="SVGID_00000159444143403506069130000000757316728912342435_" x="0" width="1535" height="1479.4"/>
			</defs>
			<clipPath id="SVGID_00000034055388499085912840000012496095749181781137_">
				<use xlink:href="#SVGID_00000159444143403506069130000000757316728912342435_"  style="overflow:visible;"/>
			</clipPath>
			<g style="clip-path:url(#SVGID_00000034055388499085912840000012496095749181781137_);">
				<path class="st5" d="M301.5,859.8c1.9,1.6,4.5,2.3,7,2c24.8,1.1,49.5,5,73.5,11.6c21.2,4.9,40.6,15.4,56.3,30.3
					c4.5,4.3,9.8,7.7,15.6,10c1.5,0.6,3,1.2,4.5,1.9c20,8.7,24.1,17.3,17.2,37.8c-7.2,21.4-16.2,42.1-18.8,64.8
					c-1.4,13-2.9,26-4.7,38.9c-0.9,5.2-2.1,10.2-3.6,15.2c-3.8,14.4-12.5,27-24.6,35.6c-10.1,7.3-20.2,14.5-30.5,21.5
					c-9.3,6.2-15.6,16-17.5,27.1c-8.4,40.8-33,70.3-67,92.7c-2.2,1.4-4.5,2.7-6.9,3.8c-3.5,1.3-5.5,4.9-5,8.5
					c0.8,13.5-6.2,22.9-16.6,30.4c-6.2,4.3-12.7,8.1-19.4,11.5c-3.7,2.3-8.4,1.9-11.7-1c-23.3-16.4-44.5-35.5-63.4-56.8
					c-24.1-28.5-45.6-59-64.3-91.3c-2.4-3.9-3.4-8.5-3-13.1c0.9-11.4,1.7-22.8,2.8-34.2c0.8-9.1,1.2-18.3,1-27.4
					c0.3-6-2.6-11.7-7.7-15c-8.3-6.4-17.5-11.6-27.2-15.3c-1.5-0.5-3.1-1.1-4.6-1.8c-13.2-4.8-23.8-15-28.9-28.1
					c-16.2-39.3-28.6-80-36.9-121.7c-1.2-8.5-0.4-17.1,2.2-25.2c2.1-8.9,5.7-17.5,10.8-25.1c7.8-11,12.3-24,13.1-37.4
					c1.1-19.7,9.9-36.3,21.8-51.6c6.1-8.3,15-14,25-16.1c6.4-1.4,12.5-3.8,18.2-7c18.8-10,37.1-8.2,55,2.6c4.2,2.5,8.3,5.3,12.3,8.1
					c23.2,16,49.3,27.3,76.9,33.1c14.1,2.9,27.5,8.5,39.5,16.6c11.2,6.8,17.2,19.8,15.2,32.8c-0.8,5.8-2,11.6-3,17.4
					C303.4,850.7,302.4,855.4,301.5,859.8z"/>
			</g>
		</g>
		<g>
			<defs>
				<rect id="SVGID_00000119840272794167551890000006515614391464980877_" x="0" width="1535" height="1479.4"/>
			</defs>
			<clipPath id="SVGID_00000163788635506115881470000001431784569498534819_">
				<use xlink:href="#SVGID_00000119840272794167551890000006515614391464980877_"  style="overflow:visible;"/>
			</clipPath>
			<g style="clip-path:url(#SVGID_00000163788635506115881470000001431784569498534819_);">
				<path class="st5" d="M305,243.3c4.6,0,9.2-0.4,13.7,0.1c15,0.9,26.9,13,27.6,28c0.5,5.5,1.1,11.1,1.7,16.6
					c0.6,5.2,2.5,10.2,5.5,14.5c2.3,3.2,4.3,6.6,5.9,10.1c4.3,10.1,1.3,17.3-9.1,20.8c-11.5,3.8-23.1,7.1-34.8,10.2
					c-14.3,3.3-28.4,7.8-42,13.3c-6.6,2.9-12.9,6.3-18.9,10.3c-5.3,3.3-9.2,8.5-10.9,14.5c-2.7,8.8-7.7,16.7-14.4,23
					c-10.2,10.1-21.3,19.4-33,27.7c-18.2,13.3-36.4,26.7-53.9,40.8c-5.1,4.1-10,8.4-14.9,12.7c-22.4,19.5-42,41.3-53,69.5
					c-9.3,23.6-27.2,40.4-44.1,58.1c-1.6,1.7-3.4,3-5.5,4c-3.8,2.3-8.8,1.1-11.1-2.8c-0.9-1.5-1.3-3.1-1.1-4.8
					c0-3.3,0.4-6.5,1.1-9.7c11.4-54.2,29.3-106.4,49-158c7.7-20.1,16.4-39.9,24.6-59.8c8.7-20.9,20.2-40.4,34.1-58.2
					c11.5-14.7,22-30.3,34.5-43.9c25.9-28,50-57.9,79-83c19.8-17.2,41.6-31.8,65-43.6c5.7-3.2,12.4-4.2,18.8-2.8
					c3.9,0.9,5.3,1.6,3.4,5.6c-2.6,6-7.1,11-12.8,14.2c-20.7,11.5-31.1,30.1-34.9,52.8c-2,12.2,3.6,18.7,15.8,19.7
					C295.2,243.5,300.1,243.2,305,243.3L305,243.3z"/>
			</g>
		</g>
		<g>
			<defs>
				<rect id="SVGID_00000072246527514837831310000014025913183002769811_" x="0" width="1535" height="1479.4"/>
			</defs>
			<clipPath id="SVGID_00000055665500067477939790000008437846652647550854_">
				<use xlink:href="#SVGID_00000072246527514837831310000014025913183002769811_"  style="overflow:visible;"/>
			</clipPath>
			<g style="clip-path:url(#SVGID_00000055665500067477939790000008437846652647550854_);">
				<path class="st5" d="M505.5,50.7c14,0.9,28.1,1.2,42,2.9c22.8,2.4,45.9,0.6,68-5.4c24.6-6.7,50.1-9.7,75.6-9
					c10.1,0.3,20.2,1.6,30.1,3.9c23,5.8,30.2,29.7,14.1,47.3c-3.7,4.1-7.9,7.8-12.5,11c-33,22.3-66.4,44.2-103,60.3
					c-8.7,3.8-17.5,7.2-26.4,10.6c-22.3,8.4-43.8,19-64.1,31.4c-7.5,4.6-15.3,8.8-23.1,12.9c-5.2,2.8-10.9,4.5-16.8,5.1
					c-15.2,2.3-29.8-6.8-34.5-21.4c-4.4-11.3-5.9-23.6-4.2-35.6c0.7-4.8,0.8-9.8,1.2-14.6c1.1-13.1-4.8-22.6-15.1-30
					c-8.9-6-18.4-11.3-28.2-15.7c-5.1-2.2-9.9-5.1-14.2-8.6c-11.2-10.1-9.6-19.7,4.3-25.1c6.4-2.4,12.9-4.5,19.6-6.1
					c20.5-5.5,41.4-9.6,62.4-12.2C489.2,51.2,497.3,50.9,505.5,50.7z"/>
			</g>
		</g>
		<g>
			<defs>
				<rect id="SVGID_00000178173344880898100510000003597755264057381782_" x="0" width="1535" height="1479.4"/>
			</defs>
			<clipPath id="SVGID_00000028294513963843715660000016566353159472905605_">
				<use xlink:href="#SVGID_00000178173344880898100510000003597755264057381782_"  style="overflow:visible;"/>
			</clipPath>
			<g style="clip-path:url(#SVGID_00000028294513963843715660000016566353159472905605_);">
				<path class="st5" d="M842.3,317c-0.1,5.2-2.5,10-6.6,13.2c-10.3,7.4-22.1,12.6-34.6,15.3c-4.9,1.4-10.2-0.5-12.9-4.8
					c-3.1-4.4-2.9-10.4,0.3-14.7c0.4-0.9,1-1.7,1.7-2.4c9.9-7.8,7.8-17.6,4.9-27.6c-0.9-3.5-2.2-6.8-3.7-10.1
					c-3-5.9-0.8-11.5,0.8-17.1c0.9-3.1,4-4.9,7.1-4c0.3,0.1,0.5,0.2,0.8,0.3c1.6,0.4,3.1,1.1,4.4,2c16.1,10.7,28.7,25.9,36.2,43.8
					C841.5,313,842,315,842.3,317z"/>
			</g>
		</g>
		<g>
			<defs>
				<rect id="SVGID_00000109010679132918703470000011115856422934300293_" x="0" width="1535" height="1479.4"/>
			</defs>
			<clipPath id="SVGID_00000120524669000816658520000015347188958447770787_">
				<use xlink:href="#SVGID_00000109010679132918703470000011115856422934300293_"  style="overflow:visible;"/>
			</clipPath>
			<g style="clip-path:url(#SVGID_00000120524669000816658520000015347188958447770787_);">
				<path class="st5" d="M760.1,321.8c-3.4,0.2-6.7-0.9-9.4-3c-8.2-5.4-17.8-8.4-27.7-8.6c-4.9,0.1-9.8-1.2-14.1-3.7
					c-5.2-2.7-7.3-9.1-4.6-14.3c0.9-1.8,2.3-3.3,4.1-4.3c2.1-1.5,4.5-2.6,7-3.3c8.9-2.1,18-3.2,27.2-3.5c3.9-0.2,7.8,1.3,10.5,4.2
					c5.6,5.4,12.8,9.2,16.4,16.5c1.1,2,2,4.1,2.9,6.2c3.4,9,1.1,12.5-8.7,13.3C762.8,321.5,761.8,321.6,760.1,321.8z"/>
			</g>
		</g>
		<g>
			<defs>
				<rect id="SVGID_00000106148345114373674770000016998515042754157474_" x="0" width="1535" height="1479.4"/>
			</defs>
			<clipPath id="SVGID_00000122708065814041327300000007237239707265358251_">
				<use xlink:href="#SVGID_00000106148345114373674770000016998515042754157474_"  style="overflow:visible;"/>
			</clipPath>
			<g style="clip-path:url(#SVGID_00000122708065814041327300000007237239707265358251_);">
				<path class="st13" d="M774.4,806.8c-41-0.5-71.7-13.7-96.5-40.8c-15.6-17-25.8-37.4-21.3-62.5c1.3-7.6,3.6-16.9,13.4-17.1
					c7.8-0.1,9.6,7.1,10.7,13.5c7.3,46.4,40,59.9,76,66.2c43.9,7.7,72.2-10.7,91.5-55.1c1.9-4.5,3.3-9.3,5.5-13.6
					c5-9.9,15-14.5,22.9-10.5c9.6,4.8,12.6,13.9,11.4,24.5c-2.2,16.3-8.8,31.6-19,44.5C843.1,789.9,793.6,806.5,774.4,806.8z"/>
			</g>
		</g>
		<g>
			<defs>
				<rect id="SVGID_00000096027124152870762270000003518946463800937610_" x="0" width="1535" height="1479.4"/>
			</defs>
			<clipPath id="SVGID_00000037661189630726915920000004544467053258475913_">
				<use xlink:href="#SVGID_00000096027124152870762270000003518946463800937610_"  style="overflow:visible;"/>
			</clipPath>
			<g style="clip-path:url(#SVGID_00000037661189630726915920000004544467053258475913_);">
				<path class="st15" d="M221.2,649.4c22.5,1.3,41.8,1.4,60,12.7c30.4,18.9,38.3,48.7,23.4,87.7c-9.7,25.6-23.7,44.5-44.1,55.8
					c-25.5,14.1-51.6,24.2-79.7,22.5c-29.4-1.8-52.6-18.3-70-48.9c-12.7-22.2-13.4-40.7-1.3-63.8c19.4-37.4,48.8-53.7,81.2-62.6
					C201.5,649.8,213,650.2,221.2,649.4z"/>
			</g>
		</g>
		<g>
			<defs>
				<rect id="SVGID_00000023983795834043206680000004903744034290429061_" x="0" width="1535" height="1479.4"/>
			</defs>
			<clipPath id="SVGID_00000170236590712961108070000013175551435021419908_">
				<use xlink:href="#SVGID_00000023983795834043206680000004903744034290429061_"  style="overflow:visible;"/>
			</clipPath>
			<g style="clip-path:url(#SVGID_00000170236590712961108070000013175551435021419908_);">
				<path class="st15" d="M1314.8,823.4c-33.8-1.1-65.1-14.3-92.1-44.4c-32.5-36.2-28.7-82.5,8.5-105.5
					c47.4-29.3,93.4-19.8,138.7,11.6c28.1,19.5,34.8,89.8,0.8,117.7C1353.3,817.2,1334.8,824.2,1314.8,823.4z"/>
			</g>
		</g>
		<g>
			<defs>
				<rect id="SVGID_00000040562659546893824120000007414232368677065912_" x="0" width="1535" height="1479.4"/>
			</defs>
			<clipPath id="SVGID_00000079486344819507571140000009229924856763825597_">
				<use xlink:href="#SVGID_00000040562659546893824120000007414232368677065912_"  style="overflow:visible;"/>
			</clipPath>
			<g style="clip-path:url(#SVGID_00000079486344819507571140000009229924856763825597_);">
				<path class="st13" d="M504.9,615.8c7.9,0.6,14.7,0.6,21,5.4c10.6,8.1,13.4,20.8,8.2,37.5c-3.4,10.9-8.3,19-15.5,23.9
					c-9,6-18.1,10.4-28,9.6c-10.3-0.8-18.4-7.9-24.6-20.9c-4.5-8.5-4.7-18.7-0.5-27.3c4.8-12.8,15.3-22.7,28.5-26.8
					C497.6,616.4,501.2,615.9,504.9,615.8z"/>
			</g>
		</g>
		<g>
			<defs>
				<rect id="SVGID_00000070835935787014560450000013988686351667447703_" x="0" width="1535" height="1479.4"/>
			</defs>
			<clipPath id="SVGID_00000126288184885098234710000006568054764515933613_">
				<use xlink:href="#SVGID_00000070835935787014560450000013988686351667447703_"  style="overflow:visible;"/>
			</clipPath>
			<g style="clip-path:url(#SVGID_00000126288184885098234710000006568054764515933613_);">
				<path class="st13" d="M1021.9,703.3c-12.3-0.5-23.7-6.2-33.4-19.2c-11.8-15.7-10.4-35.8,3.1-45.7c17.2-12.7,33.9-8.6,50.3,5
					c10.2,8.5,12.6,38.9,0.3,51C1037,700.2,1029.6,703.4,1021.9,703.3z"/>
			</g>
		</g>
	</g>
</g>
</svg>
